<svg width="787" height="238" fill="none" xmlns="http://www.w3.org/2000/svg"><path fill="#fff" d="M0 0h787v238H0z"/><path d="M100.87 21.546c-1.822-2.061-5.376-2.061-7.198 0C91.276 24.261 35 88.431 35 121.603a62.308 62.308 0 0021.26 46.862c10.136 8.877 22.848 14.16 36.212 15.192v31.544a4.8 4.8 0 009.597 0v-31.515a61.662 61.662 0 0032.042-11.873c15.923-11.704 25.429-30.472 25.429-50.21.002-33.172-56.274-97.342-58.67-100.057zm-8.397 69.929L69.42 68.452c7.838-11.422 16.194-22.245 23.053-30.62v53.643zm9.597-53.645c6.887 8.41 15.285 19.286 23.152 30.762L102.07 91.534V37.83zM62.583 161.244a52.71 52.71 0 01-17.984-39.641c0-11.28 8.596-28.245 19.396-45.008l28.478 28.437v35.691l-23.53-23.53a4.797 4.797 0 00-6.785 0 4.797 4.797 0 000 6.786l30.315 30.314v19.763a52.612 52.612 0 01-29.89-12.812zm65.846 2.834a52.15 52.15 0 01-26.359 9.964v-19.748l30.319-30.314a4.797 4.797 0 000-6.785 4.796 4.796 0 00-6.786 0l-23.531 23.529v-35.679l28.567-28.309c10.756 16.718 19.307 33.619 19.307 44.867-.001 16.693-8.043 32.574-21.517 42.475z" fill="#22495A"/><path stroke="#22495A" stroke-width="5" d="M2.5 2.5h782v233H2.5zM192.5 3v232"/><path d="M259.704 154.92c-1.12-1.456-2.539-2.576-4.256-3.36a12.678 12.678 0 00-5.32-1.176c-2.24 0-4.275.429-6.104 1.288a14.033 14.033 0 00-4.648 3.416c-1.269 1.456-2.259 3.173-2.968 5.152-.709 1.941-1.064 4.032-1.064 6.272 0 2.091.336 4.069 1.008 5.936.672 1.867 1.643 3.509 2.912 4.928s2.819 2.539 4.648 3.36c1.829.821 3.901 1.232 6.216 1.232 2.277 0 4.275-.467 5.992-1.4 1.717-.933 3.173-2.24 4.368-3.92l4.536 3.416c-.299.411-.821 1.008-1.568 1.792-.747.747-1.736 1.512-2.968 2.296-1.232.747-2.725 1.4-4.48 1.96-1.717.597-3.715.896-5.992.896-3.136 0-5.973-.597-8.512-1.792-2.501-1.195-4.648-2.763-6.44-4.704a20.842 20.842 0 01-4.032-6.552c-.933-2.464-1.4-4.947-1.4-7.448 0-3.061.504-5.88 1.512-8.456 1.008-2.613 2.408-4.853 4.2-6.72 1.829-1.904 4.013-3.379 6.552-4.424 2.539-1.045 5.339-1.568 8.4-1.568 2.613 0 5.171.504 7.672 1.512 2.539 1.008 4.611 2.557 6.216 4.648l-4.48 3.416zm21.062-8.568h5.376v16.464h20.552v-16.464h5.376V186h-5.376v-18.144h-20.552V186h-5.376v-39.648zm50.747 0h5.376V186h-5.376v-39.648zm24.826 0h13.944c2.539 0 4.63.355 6.272 1.064 1.643.672 2.931 1.549 3.864 2.632a8.565 8.565 0 012.016 3.584c.374 1.307.56 2.576.56 3.808 0 1.269-.224 2.501-.672 3.696a10.532 10.532 0 01-1.96 3.192c-.821.933-1.848 1.736-3.08 2.408-1.194.635-2.538 1.027-4.032 1.176L384.507 186h-6.72l-10.08-17.472h-5.992V186h-5.376v-39.648zm5.376 17.472h7.056c1.046 0 2.072-.075 3.08-.224 1.046-.187 1.96-.504 2.744-.952a5.049 5.049 0 001.96-1.904c.486-.859.728-1.96.728-3.304 0-1.344-.242-2.427-.728-3.248-.485-.859-1.138-1.512-1.96-1.96-.784-.448-1.698-.747-2.744-.896a16.844 16.844 0 00-3.08-.28h-7.056v12.768zm56.299 23.184c-3.024 0-5.806-.523-8.344-1.568-2.539-1.083-4.723-2.557-6.552-4.424-1.792-1.867-3.211-4.069-4.256-6.608-1.008-2.539-1.512-5.283-1.512-8.232 0-2.949.504-5.693 1.512-8.232 1.045-2.539 2.464-4.741 4.256-6.608 1.829-1.867 4.013-3.323 6.552-4.368 2.538-1.083 5.32-1.624 8.344-1.624 3.024 0 5.805.541 8.344 1.624 2.538 1.045 4.704 2.501 6.496 4.368 1.829 1.867 3.248 4.069 4.256 6.608 1.045 2.539 1.568 5.283 1.568 8.232 0 2.949-.523 5.693-1.568 8.232-1.008 2.539-2.427 4.741-4.256 6.608-1.792 1.867-3.958 3.341-6.496 4.424-2.539 1.045-5.32 1.568-8.344 1.568zm0-5.04c2.277 0 4.33-.411 6.16-1.232 1.829-.859 3.397-1.997 4.704-3.416 1.306-1.419 2.314-3.08 3.024-4.984.709-1.941 1.064-3.995 1.064-6.16s-.355-4.2-1.064-6.104c-.71-1.941-1.718-3.621-3.024-5.04-1.307-1.419-2.875-2.539-4.704-3.36-1.83-.859-3.883-1.288-6.16-1.288-2.278 0-4.331.429-6.16 1.288-1.83.821-3.398 1.941-4.704 3.36-1.307 1.419-2.315 3.099-3.024 5.04-.71 1.904-1.064 3.939-1.064 6.104s.354 4.219 1.064 6.16c.709 1.904 1.717 3.565 3.024 4.984 1.306 1.419 2.874 2.557 4.704 3.416 1.829.821 3.882 1.232 6.16 1.232zm37.634-35.616h13.944c2.538 0 4.629.355 6.272 1.064 1.642.672 2.93 1.549 3.864 2.632a8.587 8.587 0 012.016 3.584c.373 1.307.56 2.576.56 3.808 0 1.232-.187 2.52-.56 3.864-.374 1.307-1.046 2.501-2.016 3.584-.934 1.045-2.222 1.923-3.864 2.632-1.643.672-3.734 1.008-6.272 1.008h-8.568V186h-5.376v-39.648zm5.376 17.472h7.056c1.045 0 2.072-.075 3.08-.224 1.045-.187 1.96-.504 2.744-.952a5.062 5.062 0 001.96-1.904c.485-.859.728-1.96.728-3.304 0-1.344-.243-2.427-.728-3.248-.486-.859-1.139-1.512-1.96-1.96-.784-.448-1.699-.747-2.744-.896a16.853 16.853 0 00-3.08-.28h-7.056v12.768zm37.059-17.472h13.944c2.539 0 4.629.355 6.272 1.064 1.643.672 2.931 1.549 3.864 2.632a8.565 8.565 0 012.016 3.584c.373 1.307.56 2.576.56 3.808 0 1.269-.224 2.501-.672 3.696a10.532 10.532 0 01-1.96 3.192c-.821.933-1.848 1.736-3.08 2.408-1.195.635-2.539 1.027-4.032 1.176L526.251 186h-6.72l-10.08-17.472h-5.992V186h-5.376v-39.648zm5.376 17.472h7.056c1.045 0 2.072-.075 3.08-.224 1.045-.187 1.96-.504 2.744-.952a5.055 5.055 0 001.96-1.904c.485-.859.728-1.96.728-3.304 0-1.344-.243-2.427-.728-3.248-.485-.859-1.139-1.512-1.96-1.96-.784-.448-1.699-.747-2.744-.896a16.853 16.853 0 00-3.08-.28h-7.056v12.768zm50.53-17.472h4.872L575.829 186h-6.272l-3.976-9.8h-18.872l-3.92 9.8h-6.272l17.472-39.648zm9.632 25.144l-7.392-18.2h-.112l-7.504 18.2h15.008zm54.214-16.576c-1.12-1.456-2.539-2.576-4.256-3.36a12.678 12.678 0 00-5.32-1.176c-2.24 0-4.275.429-6.104 1.288a14.033 14.033 0 00-4.648 3.416c-1.269 1.456-2.259 3.173-2.968 5.152-.709 1.941-1.064 4.032-1.064 6.272 0 2.091.336 4.069 1.008 5.936.672 1.867 1.643 3.509 2.912 4.928s2.819 2.539 4.648 3.36c1.829.821 3.901 1.232 6.216 1.232 2.277 0 4.275-.467 5.992-1.4 1.717-.933 3.173-2.24 4.368-3.92l4.536 3.416c-.299.411-.821 1.008-1.568 1.792-.747.747-1.736 1.512-2.968 2.296-1.232.747-2.725 1.4-4.48 1.96-1.717.597-3.715.896-5.992.896-3.136 0-5.973-.597-8.512-1.792-2.501-1.195-4.648-2.763-6.44-4.704a20.842 20.842 0 01-4.032-6.552c-.933-2.464-1.4-4.947-1.4-7.448 0-3.061.504-5.88 1.512-8.456 1.008-2.613 2.408-4.853 4.2-6.72 1.829-1.904 4.013-3.379 6.552-4.424 2.539-1.045 5.339-1.568 8.4-1.568 2.613 0 5.171.504 7.672 1.512 2.539 1.008 4.611 2.557 6.216 4.648l-4.48 3.416zm29.35-3.528h-12.768v-5.04h30.912v5.04h-12.768V186h-5.376v-34.608zm33.108-5.04h5.376V186h-5.376v-39.648zm52.434 8.568c-1.12-1.456-2.539-2.576-4.256-3.36-1.718-.784-3.491-1.176-5.32-1.176-2.24 0-4.275.429-6.104 1.288a14.022 14.022 0 00-4.648 3.416c-1.27 1.456-2.259 3.173-2.968 5.152-.71 1.941-1.064 4.032-1.064 6.272 0 2.091.336 4.069 1.008 5.936.672 1.867 1.642 3.509 2.912 4.928 1.269 1.419 2.818 2.539 4.648 3.36 1.829.821 3.901 1.232 6.216 1.232 2.277 0 4.274-.467 5.992-1.4 1.717-.933 3.173-2.24 4.368-3.92l4.536 3.416c-.299.411-.822 1.008-1.568 1.792-.747.747-1.736 1.512-2.968 2.296-1.232.747-2.726 1.4-4.48 1.96-1.718.597-3.715.896-5.992.896-3.136 0-5.974-.597-8.512-1.792-2.502-1.195-4.648-2.763-6.44-4.704a20.842 20.842 0 01-4.032-6.552c-.934-2.464-1.4-4.947-1.4-7.448 0-3.061.504-5.88 1.512-8.456 1.008-2.613 2.408-4.853 4.2-6.72 1.829-1.904 4.013-3.379 6.552-4.424 2.538-1.045 5.338-1.568 8.4-1.568 2.613 0 5.17.504 7.672 1.512 2.538 1.008 4.61 2.557 6.216 4.648l-4.48 3.416zM232.341 42.06h15.587v1.09h-.545c-.509 0-.981.218-1.417.654-.436.363-.799.836-1.09 1.417-.291.509-.545 1.126-.763 1.853-.145.654-.218 1.235-.218 1.744v58.097c0 .581.073 1.235.218 1.962.145.654.363 1.272.654 1.853.363.581.727 1.09 1.09 1.526.436.436.945.654 1.526.654h.545V114h-15.587v-1.09h.545c.581 0 1.09-.182 1.526-.545a5.832 5.832 0 001.09-1.526 7.303 7.303 0 00.763-1.962c.145-.727.218-1.381.218-1.962V48.818c0-.509-.073-1.09-.218-1.744a5.882 5.882 0 00-.763-1.853c-.291-.581-.654-1.054-1.09-1.417-.436-.436-.945-.654-1.526-.654h-.545v-1.09zm69.887 64.855c0 .581.073 1.235.218 1.962.145.654.363 1.272.654 1.853.363.581.727 1.09 1.09 1.526.436.436.945.654 1.526.654V114h-14.061v-1.09c.509 0 .981-.218 1.417-.654a5.832 5.832 0 001.09-1.526 5.879 5.879 0 00.763-1.853c.145-.727.218-1.381.218-1.962V86.641c0-2.616-.363-4.905-1.09-6.867-.727-1.962-1.708-3.597-2.943-4.905-1.235-1.308-2.652-2.253-4.251-2.834a11.79 11.79 0 00-4.687-.981c-1.599 0-3.197.327-4.796.981a15.364 15.364 0 00-4.142 2.616c-1.163 1.017-2.144 2.253-2.943 3.706a9.23 9.23 0 00-1.09 4.36v24.198c0 .581.073 1.235.218 1.962.145.654.363 1.272.654 1.853.363.581.727 1.09 1.09 1.526.436.436.945.654 1.526.654V114h-14.17v-1.09c.509 0 .981-.218 1.417-.654a5.832 5.832 0 001.09-1.526 5.879 5.879 0 00.763-1.853c.145-.727.218-1.381.218-1.962V76.831a10.97 10.97 0 00-.545-3.488c-.363-1.163-1.417-1.78-3.161-1.853v-.981l10.9-3.488v5.995c.509-.581 1.163-1.199 1.962-1.853.799-.727 1.744-1.38 2.834-1.962 1.163-.654 2.471-1.163 3.924-1.526 1.526-.436 3.306-.654 5.341-.654 3.415 0 6.322.581 8.72 1.744 2.398 1.163 4.36 2.689 5.886 4.578a16.584 16.584 0 013.27 6.104c.727 2.18 1.09 4.324 1.09 6.431v21.037zm58.013 0c0 .581.072 1.235.218 1.962.145.654.363 1.272.654 1.853.363.581.726 1.09 1.09 1.526.436.436.944.654 1.526.654V114h-14.061v-1.09c.508 0 .981-.218 1.417-.654a5.832 5.832 0 001.09-1.526 5.902 5.902 0 00.763-1.853c.145-.727.218-1.381.218-1.962V86.641c0-2.616-.364-4.905-1.09-6.867-.727-1.962-1.708-3.597-2.943-4.905-1.236-1.308-2.653-2.253-4.251-2.834a11.793 11.793 0 00-4.687-.981c-1.599 0-3.198.327-4.796.981a15.364 15.364 0 00-4.142 2.616c-1.163 1.017-2.144 2.253-2.943 3.706a9.23 9.23 0 00-1.09 4.36v24.198c0 .581.072 1.235.218 1.962.145.654.363 1.272.654 1.853.363.581.726 1.09 1.09 1.526.436.436.944.654 1.526.654V114h-14.17v-1.09c.508 0 .981-.218 1.417-.654a5.832 5.832 0 001.09-1.526 5.902 5.902 0 00.763-1.853c.145-.727.218-1.381.218-1.962V76.831a10.97 10.97 0 00-.545-3.488c-.364-1.163-1.417-1.78-3.161-1.853v-.981l10.9-3.488v5.995c.508-.581 1.162-1.199 1.962-1.853.799-.727 1.744-1.38 2.834-1.962 1.162-.654 2.47-1.163 3.924-1.526 1.526-.436 3.306-.654 5.341-.654 3.415 0 6.322.581 8.72 1.744 2.398 1.163 4.36 2.689 5.886 4.578a16.584 16.584 0 013.27 6.104c.726 2.18 1.09 4.324 1.09 6.431v21.037zm20.189-14.933a27.69 27.69 0 001.853 7.303c.945 2.253 2.18 4.251 3.706 5.995 1.599 1.744 3.525 3.161 5.777 4.251 2.253 1.017 4.869 1.526 7.848 1.526 1.599 0 3.27-.218 5.014-.654a22.042 22.042 0 005.014-2.071 17.247 17.247 0 004.033-3.161c1.236-1.308 2.071-2.761 2.507-4.36h.981v8.175c-.436 0-.944.145-1.526.436-.508.291-1.126.654-1.853 1.09-1.453.872-3.415 1.817-5.886 2.834-2.47.945-5.74 1.417-9.81 1.417-3.27 0-6.394-.472-9.374-1.417-2.906-.945-5.486-2.398-7.739-4.36-2.252-1.962-4.069-4.469-5.45-7.521-1.308-3.052-1.962-6.685-1.962-10.9 0-2.689.436-5.414 1.308-8.175.945-2.761 2.326-5.232 4.142-7.412 1.89-2.253 4.288-4.07 7.194-5.45 2.907-1.38 6.395-2.071 10.464-2.071 3.634 0 6.795.618 9.483 1.853 2.762 1.235 5.014 2.943 6.758 5.123 1.817 2.18 3.161 4.76 4.033 7.739.872 2.98 1.308 6.25 1.308 9.81H380.43zm15.805-20.928c-2.543 0-4.759.509-6.649 1.526a16.28 16.28 0 00-4.687 3.924c-1.308 1.599-2.325 3.415-3.052 5.45a26.539 26.539 0 00-1.417 6.104h31.065a20.44 20.44 0 00-1.199-6.213c-.654-2.035-1.598-3.851-2.834-5.45-1.235-1.599-2.797-2.87-4.687-3.815-1.889-1.017-4.069-1.526-6.54-1.526zm57.7 5.123c-.872-1.453-1.781-2.362-2.725-2.725-.945-.363-2.035-.545-3.27-.545-.8 0-1.672.182-2.616.545-.872.363-1.744.836-2.616 1.417a30.652 30.652 0 00-2.616 1.962c-.8.654-1.49 1.272-2.071 1.853v28.34c0 .581.072 1.199.218 1.853.145.654.363 1.308.654 1.962.363.581.726 1.09 1.09 1.526.436.363.944.545 1.526.545V114h-14.17v-1.09c.508 0 .981-.182 1.417-.545a5.832 5.832 0 001.09-1.526 7.336 7.336 0 00.763-1.962 8.58 8.58 0 00.218-1.853V76.613c0-1.017-.327-2.035-.981-3.052-.654-1.017-1.599-1.671-2.834-1.962v-.872l11.009-3.27v6.54c.654-.8 1.344-1.562 2.071-2.289.726-.8 1.526-1.49 2.398-2.071a11.992 11.992 0 013.052-1.526c1.09-.436 2.361-.654 3.815-.654 1.017 0 2.325.218 3.924.654 1.598.436 2.906.908 3.924 1.417l-3.27 6.649zm38.442 36.733h.545c.508 0 .981-.218 1.417-.654a5.832 5.832 0 001.09-1.526 5.902 5.902 0 00.763-1.853c.145-.727.218-1.381.218-1.962V48.927c0-.509-.073-1.09-.218-1.744a5.905 5.905 0 00-.763-1.853c-.291-.654-.691-1.163-1.199-1.526-.436-.436-.945-.654-1.526-.654h-.545v-1.09h17.876c6.758 0 12.026 1.49 15.805 4.469 3.851 2.98 5.777 6.94 5.777 11.881 0 2.107-.364 3.997-1.09 5.668a16.715 16.715 0 01-2.834 4.469 19.682 19.682 0 01-3.597 3.379 34.86 34.86 0 01-3.706 2.18c3.052.581 5.595 1.562 7.63 2.943 2.034 1.38 3.669 2.98 4.905 4.796 1.308 1.744 2.216 3.633 2.725 5.668.508 2.035.763 4.033.763 5.995 0 3.779-.691 6.976-2.071 9.592a18.629 18.629 0 01-5.559 6.322c-2.253 1.599-4.869 2.761-7.848 3.488a37.153 37.153 0 01-9.047 1.09h-19.511v-1.09zm36.624-18.748c-.582-5.595-2.471-9.919-5.668-12.971-3.198-3.052-7.703-4.578-13.516-4.578h-6.104v33.79h6.322c5.886 0 10.5-1.308 13.843-3.924 3.415-2.689 5.123-6.395 5.123-11.118v-1.199zm-4.469-34.771c-.218-4.215-1.708-7.557-4.469-10.028-2.689-2.47-6.322-3.706-10.9-3.706h-5.45v27.468h5.668c3.052 0 5.522-.4 7.412-1.199 1.962-.8 3.524-1.817 4.687-3.052 1.162-1.308 1.962-2.725 2.398-4.251.436-1.526.654-3.016.654-4.469v-.763zM574.482 114v-5.559l-.545.545a19.765 19.765 0 01-6.322 4.251c-2.326 1.017-5.16 1.526-8.502 1.526-2.544 0-4.724-.291-6.54-.872-1.817-.581-3.307-1.381-4.469-2.398-1.163-1.09-2.035-2.325-2.616-3.706a12.504 12.504 0 01-.763-4.36c0-2.471.654-4.65 1.962-6.54 1.38-1.89 3.342-3.56 5.886-5.014 2.543-1.453 5.631-2.761 9.265-3.924 3.706-1.235 7.92-2.434 12.644-3.597-.146-2.834-.727-5.123-1.744-6.867-1.018-1.744-2.217-3.088-3.597-4.033-1.381-1.017-2.834-1.671-4.36-1.962-1.526-.363-2.834-.545-3.924-.545-1.89 0-3.561.29-5.014.872a13.772 13.772 0 00-3.706 2.289 14.302 14.302 0 00-2.616 2.943c-.727 1.017-1.308 1.998-1.744 2.943h-.981v-7.957a4.356 4.356 0 001.635-.545 14.93 14.93 0 011.853-.872 262.39 262.39 0 004.469-1.853c1.889-.872 4.541-1.308 7.957-1.308 3.996 0 7.23.509 9.701 1.526 2.47 1.017 4.36 2.362 5.668 4.033 1.38 1.671 2.289 3.597 2.725 5.777a32.2 32.2 0 01.654 6.54v21.582c0 1.453.327 2.834.981 4.142.654 1.235 1.526 1.853 2.616 1.853V114h-10.573zm0-10.355V88.058l-1.09.218a205.289 205.289 0 00-6.431 1.744 40.016 40.016 0 00-7.085 2.834c-2.253 1.163-4.179 2.543-5.777 4.142-1.599 1.599-2.398 3.452-2.398 5.559 0 2.325.944 4.251 2.834 5.777 1.889 1.526 4.36 2.289 7.412 2.289 2.398 0 4.505-.509 6.322-1.526 1.816-1.09 3.488-2.471 5.014-4.142l1.199-1.308zm64.858 3.27c0 .581.073 1.235.218 1.962a8.07 8.07 0 00.654 1.853c.364.581.727 1.09 1.09 1.526.436.436.945.654 1.526.654V114h-14.061v-1.09c.509 0 .981-.218 1.417-.654a5.81 5.81 0 001.09-1.526 5.855 5.855 0 00.763-1.853c.146-.727.218-1.381.218-1.962V86.641c0-2.616-.363-4.905-1.09-6.867-.726-1.962-1.707-3.597-2.943-4.905-1.235-1.308-2.652-2.253-4.251-2.834a11.79 11.79 0 00-4.687-.981c-1.598 0-3.197.327-4.796.981a15.38 15.38 0 00-4.142 2.616c-1.162 1.017-2.143 2.253-2.943 3.706a9.242 9.242 0 00-1.09 4.36v24.198c0 .581.073 1.235.218 1.962a8.07 8.07 0 00.654 1.853c.364.581.727 1.09 1.09 1.526.436.436.945.654 1.526.654V114h-14.17v-1.09c.509 0 .981-.218 1.417-.654a5.81 5.81 0 001.09-1.526 5.855 5.855 0 00.763-1.853c.146-.727.218-1.381.218-1.962V76.831c0-1.235-.181-2.398-.545-3.488-.363-1.163-1.417-1.78-3.161-1.853v-.981l10.9-3.488v5.995c.509-.581 1.163-1.199 1.962-1.853.8-.727 1.744-1.38 2.834-1.962 1.163-.654 2.471-1.163 3.924-1.526 1.526-.436 3.307-.654 5.341-.654 3.416 0 6.322.581 8.72 1.744 2.398 1.163 4.36 2.689 5.886 4.578a16.584 16.584 0 013.27 6.104c.727 2.18 1.09 4.324 1.09 6.431v21.037zM689.832 114a8.143 8.143 0 01-3.488-.763 19.8 19.8 0 01-2.725-1.853 22.135 22.135 0 01-2.616-2.616l-14.061-18.094-2.289 2.289v14.17c0 .509.073 1.09.218 1.744.145.654.363 1.308.654 1.962.363.581.763 1.09 1.199 1.526.436.363.945.545 1.526.545V114h-14.17v-1.09c.509 0 .981-.182 1.417-.545a5.832 5.832 0 001.09-1.526 7.976 7.976 0 00.654-1.853 8.58 8.58 0 00.218-1.853V51.652c0-1.017-.327-2.035-.981-3.052-.654-1.017-1.526-1.562-2.616-1.635v-1.09l10.791-3.379v45.453l17.658-16.568c.363-.363.545-.8.545-1.308 0-.509-.254-.763-.763-.763v-1.09h9.81v1.09c-.436 0-.908.109-1.417.327a12.18 12.18 0 00-1.308.763 9.926 9.926 0 00-1.526 1.09l-15.478 14.388 16.132 20.383c.945 1.308 1.889 2.434 2.834 3.379a37.537 37.537 0 002.507 2.289c.945.654 1.744.981 2.398.981V114h-6.213zm49.264-12.426c0 1.889-.473 3.633-1.417 5.232-.945 1.599-2.253 3.016-3.924 4.251-1.599 1.163-3.488 2.107-5.668 2.834-2.18.654-4.542.981-7.085.981-3.125 0-5.668-.4-7.63-1.199-1.962-.872-3.634-1.744-5.014-2.616a24.095 24.095 0 00-2.616-1.417 5.378 5.378 0 00-2.616-.654v-8.284h1.09c.218 1.017.835 2.144 1.853 3.379 1.09 1.163 2.361 2.253 3.815 3.27a28.801 28.801 0 004.905 2.616c1.816.654 3.633.981 5.45.981 1.308 0 2.652-.145 4.033-.436 1.38-.291 2.616-.763 3.706-1.417 1.162-.654 2.107-1.453 2.834-2.398.799-1.017 1.199-2.216 1.199-3.597 0-1.381-.4-2.58-1.199-3.597-.8-1.017-1.817-1.89-3.052-2.616-1.236-.8-2.653-1.49-4.251-2.071a125.143 125.143 0 00-4.796-1.635 108.343 108.343 0 01-5.777-1.962c-1.89-.727-3.597-1.562-5.123-2.507-1.526-1.017-2.762-2.216-3.706-3.597-.945-1.453-1.417-3.161-1.417-5.123 0-1.671.29-3.27.872-4.796.654-1.526 1.671-2.834 3.052-3.924 1.453-1.163 3.306-2.071 5.559-2.725 2.252-.727 4.977-1.09 8.175-1.09 2.834 0 5.014.254 6.54.763 1.598.436 2.906.908 3.924 1.417.654.363 1.308.654 1.962.872.654.145 1.38.218 2.18.218v7.63h-.872c-1.308-2.398-3.307-4.215-5.995-5.45-2.689-1.235-5.45-1.853-8.284-1.853-1.817 0-3.379.254-4.687.763-1.308.436-2.398 1.017-3.27 1.744a6.96 6.96 0 00-1.853 2.289 6.743 6.743 0 00-.545 2.616c0 1.235.327 2.289.981 3.161.726.872 1.671 1.635 2.834 2.289a41.688 41.688 0 004.033 1.853 73.889 73.889 0 004.796 1.635c2.034.654 4.069 1.38 6.104 2.18 2.034.727 3.851 1.635 5.45 2.725 1.598 1.09 2.906 2.398 3.924 3.924 1.017 1.453 1.526 3.234 1.526 5.341z" fill="#22495A"/></svg>